<?xml version="1.0" encoding="UTF-8" standalone="no"?>
<!-- Created with Inkscape (http://www.inkscape.org/) -->

<svg
   width="48"
   height="48"
   viewBox="0 0 12.7 12.7"
   version="1.1"
   id="svg1"
   xml:space="preserve"
   xmlns="http://www.w3.org/2000/svg"
   xmlns:svg="http://www.w3.org/2000/svg"><defs
     id="defs1" /><g
     id="g1"
     transform="matrix(0.26458333,0,0,0.26458333,10.00002,2.7874077e-6)"><g
       id="g3"
       transform="translate(0.11756328,0.01057941)"><path
         id="path27"
         style="fill:#d30000;fill-opacity:1;stroke-width:0.26;stroke-linecap:round;stroke-linejoin:round"
         d="m 29.633333,21.166667 -8.2e-5,2.116665 1.058384,10e-7 v 0.545624 a 0.51270964,0.51270964 135 0 1 -0.51271,0.51271 H 29.633333 V 25.4 h 1.058334 C 31.276168,25.4 31.75,24.926168 31.75,24.341667 v -1.058334 -1.05825 a 1.0584158,1.0584158 45 0 0 -1.058416,-1.058416 z"
         transform="matrix(5.7457696,0,0,5.7457696,-182.3411,-109.79126)" /><path
         id="path1"
         style="fill:#d30000;fill-opacity:1;stroke-width:0.26;stroke-linecap:round;stroke-linejoin:round"
         d="m 29.633333,21.166667 -8.2e-5,2.116665 1.058384,10e-7 v 0.545624 a 0.51270964,0.51270964 135 0 1 -0.51271,0.51271 H 29.633333 V 25.4 h 1.058334 C 31.276168,25.4 31.75,24.926168 31.75,24.341667 v -1.058334 -1.05825 a 1.0584158,1.0584158 45 0 0 -1.058416,-1.058416 z"
         transform="matrix(-5.7457696,0,0,-5.7457696,154.51527,157.77008)" /></g><g
       id="g2"><path
         id="rect11"
         style="fill:#ff0000;fill-opacity:1;stroke-width:0.1;stroke-linecap:round;stroke-linejoin:round;paint-order:stroke fill markers"
         d="m -21.795352,55.999987 v 5 5 h 5 v 3 a 2.0000004,2.0000004 135 0 1 -2,2 h -3 v 5 h 5 3 a 2.0000003,2.0000003 135 0 0 2,-2 v -3 -5 -5 -2.999229 a 2.0007706,2.0007706 45 0 0 -2.000771,-2.000771 l -2.999229,0 z"
         transform="translate(1.9999992)" /><path
         id="path17"
         style="fill:#ff0000;fill-opacity:1;stroke-width:0.1;stroke-linecap:round;stroke-linejoin:round;paint-order:stroke fill markers"
         d="m -21.795352,55.999987 v 5 5 h 5 v 3 a 2.0000004,2.0000004 135 0 1 -2,2 h -3 v 5 h 5 3 a 2.0000003,2.0000003 135 0 0 2,-2 v -3 -5 -5 -2.999229 a 2.0007706,2.0007706 45 0 0 -2.000771,-2.000771 l -2.999229,0 z"
         transform="rotate(180,-22.795352,65.999987)" /></g></g></svg>
